<?xml version="1.0" encoding="UTF-8" standalone="no"?>
<svg
   width="1582"
   height="1582"
   viewBox="0 0 1582 1582"
   fill="none"
   version="1.1"
   id="svg3"
   xmlns="http://www.w3.org/2000/svg"
   xmlns:svg="http://www.w3.org/2000/svg">
  <defs
     id="defs3" />
  <path
     d="m 1185.82,1185.82 c -78.18,78.18 -177.78,131.42 -286.218,152.98 -108.435,21.57 -220.831,10.5 -322.975,-31.81 -102.144,-42.31 -189.448,-113.95 -250.872,-205.88 -61.423,-91.93 -94.208,-200.005 -94.208,-310.565 0,-110.559 32.785,-218.636 94.208,-310.563 61.424,-91.927 148.728,-163.576 250.872,-205.885 102.144,-42.31 214.54,-53.38 322.975,-31.811 108.438,21.569 208.038,74.809 286.218,152.987 l -93.48,93.481 C 1032.65,429.066 956.601,388.417 873.811,371.949 791.02,355.481 705.206,363.933 627.219,396.237 549.232,428.54 482.575,483.244 435.678,553.43 388.781,623.616 363.75,706.133 363.75,790.545 c 0,84.413 25.031,166.93 71.928,237.115 46.897,70.19 113.554,124.89 191.541,157.19 77.987,32.31 163.801,40.76 246.592,24.29 82.79,-16.47 158.839,-57.12 218.529,-116.8 z"
     fill="#fffaf4"
     id="path1" />
  <path
     d="m 1039,1039 c -49.138,49.14 -111.746,82.6 -179.905,96.16 -68.158,13.56 -138.807,6.6 -203.011,-19.99 -64.204,-26.6 -119.08,-71.63 -157.689,-129.415 -38.609,-57.782 -59.216,-125.715 -59.216,-195.209 0,-69.494 20.607,-137.428 59.216,-195.21 38.609,-57.782 93.485,-102.818 157.689,-129.412 64.204,-26.594 134.853,-33.553 203.011,-19.995 68.159,13.558 130.767,47.022 179.905,96.162 l -54.442,54.443 c -38.372,-38.371 -87.261,-64.503 -140.484,-75.089 -53.223,-10.587 -108.39,-5.154 -158.525,15.613 -50.135,20.767 -92.987,55.934 -123.135,101.054 -30.148,45.121 -46.24,98.168 -46.24,152.434 0,54.266 16.092,107.313 46.24,152.433 30.149,45.121 73,80.291 123.135,101.051 50.135,20.77 105.302,26.2 158.525,15.62 53.224,-10.59 102.112,-36.72 140.484,-75.093 z"
     fill="#fffaf4"
     id="path2" />
  <path
     d="m 931.002,925 c -27.78,27.78 -63.173,46.698 -101.704,54.362 -38.531,7.664 -78.469,3.731 -114.765,-11.304 -36.295,-15.034 -67.317,-40.493 -89.144,-73.158 -21.826,-32.665 -33.475,-71.069 -33.475,-110.355 0,-39.285 11.649,-77.689 33.475,-110.354 21.827,-32.665 52.849,-58.125 89.144,-73.159 36.296,-15.034 76.234,-18.967 114.765,-11.303 38.531,7.664 73.924,26.582 101.704,54.362 l -34.344,34.343 c -20.987,-20.987 -47.725,-35.279 -76.835,-41.069 -29.11,-5.791 -59.283,-2.819 -86.703,8.539 -27.421,11.358 -50.858,30.592 -67.347,55.27 -16.489,24.678 -25.29,53.692 -25.29,83.371 0,29.68 8.801,58.694 25.29,83.372 16.489,24.678 39.926,43.912 67.347,55.27 27.42,11.358 57.593,14.33 86.703,8.539 29.11,-5.79 55.849,-20.082 76.835,-41.069 z"
     fill="#fffaf4"
     id="path3" />
  <path
     style="fill:#000000;stroke-width:1.50712"
     d="M 742.72765,1347.2875 C 610.20246,1335.4992 485.6909,1276.909 392.8988,1182.672 270.39694,1058.2625 213.07457,884.66323 237.521,712.11423 263.01396,532.17849 375.32718,374.83901 536.58163,293.16046 c 76.30936,-38.65218 153.56096,-58.30867 238.07809,-60.5784 108.4274,-2.91185 209.9225,23.41967 302.54278,78.4906 31.3678,18.65098 68.796,46.81829 96.0905,72.3148 l 12.0569,11.26275 -46.611,46.72776 -46.6111,46.72776 -11.3089,-10.56131 c -65.062,-60.76066 -150.03414,-99.90464 -242.10658,-111.53078 -22.16591,-2.79893 -78.78234,-2.37478 -100.97705,0.75647 -83.05645,11.7177 -150.57692,40.37681 -214.76461,91.15696 -18.77523,14.85345 -50.65612,46.81059 -65.95148,66.10919 -49.07585,61.92043 -80.01047,135.19709 -90.21561,213.69901 -3.13936,24.14915 -3.55731,76.02101 -0.80148,99.46993 17.19211,146.28451 105.5229,272.0179 236.09238,336.0628 90.77798,44.527 189.66901,55.6693 287.85993,32.4339 70.15263,-16.6005 138.1249,-53.0244 190.8645,-102.2774 l 11.3089,-10.5613 46.2343,46.2523 c 25.4288,25.4388 46.2343,46.724 46.2343,47.3005 0,1.5939 -29.7856,28.1466 -47.1484,42.031 -8.4684,6.7719 -25.9093,19.2717 -38.7575,27.7774 -79.0974,52.3637 -168.15587,83.2317 -262.69773,91.0518 -21.58662,1.7856 -73.24845,1.7918 -93.26512,0.011 z"
     id="path4" />
  <path
     style="fill:#000000;stroke-width:1.50712"
     d="M 748.326,1139.1621 C 660.73036,1127.9382 577.83951,1083.1853 522.62584,1017.306 486.8137,974.5761 459.06553,918.64417 447.82718,866.53449 437.39344,818.15564 437.3882,762.99715 447.81271,714.43446 c 7.83832,-36.51487 28.04592,-84.2886 49.11193,-116.10779 36.40674,-54.99064 83.27054,-95.83333 142.84783,-124.49458 47.48702,-22.84491 96.19332,-33.75303 150.71201,-33.75303 70.57893,0 137.28503,20.03838 194.41849,58.40292 17.05413,11.45169 42.65783,31.81242 50.07223,39.8188 l 3.3516,3.61913 -27.0648,27.03349 -27.06483,27.03348 -6.42915,-6.16451 c -25.87664,-24.81153 -64.76274,-47.92033 -100.62414,-59.79776 -83.55957,-27.67523 -173.9228,-13.84681 -247.16769,37.82446 -17.39853,12.27395 -48.77922,43.36822 -60.74222,60.1878 -31.69458,44.56155 -47.89411,88.74415 -52.40736,142.93587 -3.8121,45.77281 5.68443,95.502 26.4628,138.57422 36.99963,76.69784 108.72669,132.79564 191.62863,149.87284 85.72937,17.6596 177.30762,-7.4992 240.60331,-66.0999 l 8.83458,-8.17925 27.10107,27.00935 27.1011,27.0093 -8.4094,7.888 c -52.87577,49.5972 -121.5943,81.8759 -195.15963,91.6708 -17.66829,2.3525 -69.68842,2.619 -86.66307,0.444 z"
     id="path5" />
  <path
     style="fill:#000000;stroke-width:1.50712"
     d="M 759.58852,980.42468 C 701.46321,970.61025 653.05899,938.34964 621.8335,888.61322 591.21858,839.84931 584.02137,775.96817 602.88204,720.40339 629.8215,641.03796 705.95858,586.47158 789.99864,586.29956 c 49.65254,-0.10163 94.79418,17.30652 134.61952,51.91388 l 6.02848,5.23861 -17.21423,17.28267 -17.21424,17.28267 -7.62777,-6.85802 c -10.98802,-9.87918 -18.88188,-14.99513 -34.5383,-22.38399 -22.49051,-10.61414 -35.37414,-13.37388 -62.81406,-13.45511 -25.44956,-0.0754 -36.54452,1.86281 -56.1737,9.8129 -24.97816,10.11648 -48.33228,28.00431 -64.69748,49.5543 -10.12478,13.3325 -21.47716,37.06724 -25.63587,53.59764 -2.82026,11.21025 -3.40973,17.61791 -3.39684,36.92445 0.0184,27.49021 2.74422,40.14861 13.58259,63.07526 8.86277,18.74763 17.24611,30.16484 33.41395,45.50624 18.78625,17.82598 39.22225,29.2216 65.11295,36.3086 17.31517,4.73966 47.82552,5.49219 66.44978,1.63898 25.31915,-5.23833 48.83945,-16.6026 67.54658,-32.63641 4.41949,-3.78794 8.50029,-6.88715 9.06843,-6.88715 0.56814,0 8.48165,7.48615 17.58559,16.63588 l 16.55262,16.63589 -7.5356,6.74531 c -19.83861,17.75805 -50.6669,34.92409 -75.79949,42.20722 -27.65111,8.01298 -61.88204,10.34855 -87.72303,5.9853 z"
     id="path6" />
</svg>
