<svg width="1582" height="1582" viewBox="0 0 1582 1582" fill="none" xmlns="http://www.w3.org/2000/svg">
<path d="M1185.82 1185.82C1107.64 1264 1008.04 1317.24 899.602 1338.8C791.167 1360.37 678.771 1349.3 576.627 1306.99C474.483 1264.68 387.179 1193.04 325.755 1101.11C264.332 1009.18 231.547 901.105 231.547 790.545C231.547 679.986 264.332 571.909 325.755 479.982C387.179 388.055 474.483 316.406 576.627 274.097C678.771 231.787 791.167 220.717 899.602 242.286C1008.04 263.855 1107.64 317.095 1185.82 395.273L1092.34 488.754C1032.65 429.066 956.601 388.417 873.811 371.949C791.02 355.481 705.206 363.933 627.219 396.237C549.232 428.54 482.575 483.244 435.678 553.43C388.781 623.616 363.75 706.133 363.75 790.545C363.75 874.958 388.781 957.475 435.678 1027.66C482.575 1097.85 549.232 1152.55 627.219 1184.85C705.206 1217.16 791.02 1225.61 873.811 1209.14C956.601 1192.67 1032.65 1152.02 1092.34 1092.34L1185.82 1185.82Z" fill="#FFFAF4"/>
<path d="M1039 1039C989.862 1088.14 927.254 1121.6 859.095 1135.16C790.937 1148.72 720.288 1141.76 656.084 1115.17C591.88 1088.57 537.004 1043.54 498.395 985.755C459.786 927.973 439.179 860.04 439.179 790.546C439.179 721.052 459.786 653.118 498.395 595.336C537.004 537.554 591.88 492.518 656.084 465.924C720.288 439.33 790.937 432.371 859.095 445.929C927.254 459.487 989.862 492.951 1039 542.091L984.558 596.534C946.186 558.163 897.297 532.031 844.074 521.445C790.851 510.858 735.684 516.291 685.549 537.058C635.414 557.825 592.562 592.992 562.414 638.112C532.266 683.233 516.174 736.28 516.174 790.546C516.174 844.812 532.266 897.859 562.414 942.979C592.563 988.1 635.414 1023.27 685.549 1044.03C735.684 1064.8 790.851 1070.23 844.074 1059.65C897.298 1049.06 946.186 1022.93 984.558 984.557L1039 1039Z" fill="#FFFAF4"/>
<path d="M931.002 925C903.222 952.78 867.829 971.698 829.298 979.362C790.767 987.026 750.829 983.093 714.533 968.058C678.238 953.024 647.216 927.565 625.389 894.9C603.563 862.235 591.914 823.831 591.914 784.545C591.914 745.26 603.563 706.856 625.389 674.191C647.216 641.526 678.238 616.066 714.533 601.032C750.829 585.998 790.767 582.065 829.298 589.729C867.829 597.393 903.222 616.311 931.002 644.091L896.658 678.434C875.671 657.447 848.933 643.155 819.823 637.365C790.713 631.574 760.54 634.546 733.12 645.904C705.699 657.262 682.262 676.496 665.773 701.174C649.284 725.852 640.483 754.866 640.483 784.545C640.483 814.225 649.284 843.239 665.773 867.917C682.262 892.595 705.699 911.829 733.12 923.187C760.54 934.545 790.713 937.517 819.823 931.726C848.933 925.936 875.672 911.644 896.658 890.657L931.002 925Z" fill="#FFFAF4"/>
</svg>
