<svg width="5590" height="1972" viewBox="0 0 5590 1972" fill="none" xmlns="http://www.w3.org/2000/svg">
<path d="M1185.82 1380.82C1107.64 1459 1008.04 1512.24 899.601 1533.8C791.166 1555.37 678.77 1544.3 576.626 1501.99C474.482 1459.68 387.178 1388.04 325.754 1296.11C264.331 1204.18 231.546 1096.11 231.546 985.545C231.546 874.986 264.331 766.909 325.754 674.982C387.178 583.055 474.482 511.406 576.626 469.097C678.77 426.787 791.166 415.717 899.601 437.286C1008.04 458.855 1107.64 512.095 1185.82 590.273L1092.34 683.754C1032.65 624.066 956.6 583.417 873.81 566.949C791.019 550.481 705.205 558.933 627.218 591.237C549.231 623.54 482.574 678.244 435.677 748.43C388.78 818.616 363.749 901.133 363.749 985.545C363.749 1069.96 388.78 1152.47 435.677 1222.66C482.574 1292.85 549.231 1347.55 627.218 1379.85C705.205 1412.16 791.019 1420.61 873.81 1404.14C956.6 1387.67 1032.65 1347.02 1092.34 1287.34L1185.82 1380.82Z" fill="black"/>
<path d="M1039 1234C989.861 1283.14 927.253 1316.6 859.094 1330.16C790.936 1343.72 720.287 1336.76 656.083 1310.17C591.879 1283.57 537.003 1238.54 498.394 1180.76C459.785 1122.97 439.178 1055.04 439.178 985.546C439.178 916.052 459.785 848.118 498.394 790.336C537.003 732.554 591.879 687.518 656.083 660.924C720.287 634.33 790.936 627.371 859.094 640.929C927.253 654.487 989.861 687.951 1039 737.091L984.557 791.534C946.185 753.163 897.296 727.031 844.073 716.445C790.85 705.858 735.683 711.291 685.548 732.058C635.413 752.825 592.561 787.992 562.413 833.112C532.265 878.233 516.173 931.28 516.173 985.546C516.173 1039.81 532.265 1092.86 562.413 1137.98C592.562 1183.1 635.413 1218.27 685.548 1239.03C735.683 1259.8 790.85 1265.23 844.073 1254.65C897.297 1244.06 946.185 1217.93 984.557 1179.56L1039 1234Z" fill="black"/>
<path d="M931.001 1120C903.221 1147.78 867.828 1166.7 829.297 1174.36C790.766 1182.03 750.828 1178.09 714.532 1163.06C678.237 1148.02 647.215 1122.57 625.389 1089.9C603.562 1057.24 591.913 1018.83 591.913 979.545C591.913 940.26 603.562 901.856 625.388 869.191C647.215 836.526 678.237 811.066 714.532 796.032C750.828 780.998 790.766 777.065 829.297 784.729C867.828 792.393 903.221 811.311 931.001 839.091L896.657 873.434C875.67 852.447 848.932 838.155 819.822 832.365C790.712 826.574 760.539 829.546 733.119 840.904C705.698 852.262 682.261 871.496 665.772 896.174C649.283 920.852 640.482 949.866 640.482 979.545C640.482 1009.23 649.283 1038.24 665.772 1062.92C682.261 1087.59 705.698 1106.83 733.119 1118.19C760.539 1129.54 790.712 1132.52 819.822 1126.73C848.932 1120.94 875.671 1106.64 896.657 1085.66L931.001 1120Z" fill="black"/>
<path d="M1948.63 1509V1042.43H1437.9V1509H1299.54V478.71H1437.9V924.678H1948.63V478.71H2088.45V1509H1948.63ZM2397.68 1509V478.71H2979.06L2970.22 594.985H2536.03V924.678H2945.2V1038.01H2536.03V1392.72H3002.61L2995.25 1509H2397.68ZM3247.15 1509V478.71H3828.53L3819.7 594.985H3385.5V924.678H3794.68V1038.01H3385.5V1392.72H3852.08L3844.72 1509H3247.15ZM4050.99 1332.38C4139.3 1383.89 4223.2 1410.39 4310.04 1410.39C4442.5 1410.39 4524.93 1352.98 4524.93 1248.48C4524.93 1004.16 4048.05 1049.78 4048.05 730.395C4048.05 555.246 4192.29 461.048 4382.16 461.048C4473.41 461.048 4564.67 486.069 4625.01 515.506L4597.05 624.422C4529.34 594.985 4449.86 577.323 4382.16 577.323C4270.3 577.323 4183.46 622.95 4183.46 718.62C4183.46 942.34 4657.39 898.185 4657.39 1236.71C4657.39 1416.27 4520.51 1526.66 4307.09 1526.66C4189.35 1526.66 4090.73 1491.34 4021.56 1442.77L4050.99 1332.38ZM4894.35 1509V478.71H5475.73L5466.9 594.985H5032.7V924.678H5441.87V1038.01H5032.7V1392.72H5499.28L5491.92 1509H4894.35Z" fill="black"/>
</svg>
